<?xml version="1.0" standalone="no"?>
<!DOCTYPE svg PUBLIC "-//W3C//DTD SVG 20010904//EN"
 "http://www.w3.org/TR/2001/REC-SVG-20010904/DTD/svg10.dtd">
<svg version="1.0" xmlns="http://www.w3.org/2000/svg"
 width="144.000000pt" height="144.000000pt" viewBox="0 0 144.000000 144.000000"
 preserveAspectRatio="xMidYMid meet">
<metadata>
Created by potrace 1.14, written by Peter Selinger 2001-2017
</metadata>
<g transform="translate(0.000000,144.000000) scale(0.100000,-0.100000)"
fill="#000000" stroke="none">
<path d="M307 1149 c-21 -34 -27 -94 -15 -159 12 -67 29 -101 79 -162 23 -27
35 -49 29 -53 -27 -16 -47 -81 -44 -137 3 -53 1 -58 -27 -82 -34 -29 -87 -46
-141 -46 -40 0 -60 -20 -73 -72 -8 -30 -37 -59 -80 -79 -61 -29 -34 -89 39
-89 55 1 83 18 131 82 45 59 34 56 175 43 91 -9 127 4 195 66 l45 42 53 -17
c28 -10 77 -20 108 -23 56 -5 92 7 155 52 20 15 22 13 45 -20 13 -19 30 -37
37 -40 8 -3 64 15 125 39 150 59 170 61 189 21 12 -28 25 -30 61 -14 47 21 57
93 18 132 -22 22 -64 24 -156 7 -90 -17 -143 -8 -151 25 -9 37 3 74 35 106 26
25 34 28 86 24 32 -1 72 2 89 7 40 13 76 56 76 90 0 28 -5 31 -72 42 -43 7
-60 21 -72 57 -8 24 -22 39 -48 52 -45 22 -139 33 -163 20 -12 -7 -27 -7 -46
0 -21 8 -34 8 -54 -3 -15 -8 -40 -13 -56 -12 -20 2 -29 -2 -29 -13 0 -21 36
-55 60 -56 41 -3 45 -5 42 -22 -11 -62 -93 -136 -176 -156 -81 -20 -192 -12
-255 17 -81 38 -123 86 -171 192 -3 8 -8 39 -9 69 -1 29 -6 63 -10 74 -8 21
-8 20 -24 -4z"/>
</g>
</svg>
